<?xml version="1.0" encoding="utf-8"?>
<!-- Generator: Adobe Illustrator 25.4.1, SVG Export Plug-In . SVG Version: 6.00 Build 0)  -->
<svg version="1.1" id="Layer_1" xmlns="http://www.w3.org/2000/svg" xmlns:xlink="http://www.w3.org/1999/xlink" x="0px" y="0px"
	 viewBox="0 0 70.6 70.6" style="enable-background:new 0 0 70.6 70.6;" xml:space="preserve">
<style type="text/css">
	.st0{fill:#DEB780;}
</style>
<path class="st0" d="M35.3,70.3c-19.2,0-34.9-15.6-34.9-34.9c0-19.2,15.6-34.9,34.9-34.9s34.9,15.6,34.9,34.9
	C70.2,54.6,54.5,70.3,35.3,70.3z M35.3,3.3C17.6,3.3,3.2,17.7,3.2,35.4s14.4,32.1,32.1,32.1c17.7,0,32.1-14.4,32.1-32.1
	S53,3.3,35.3,3.3z"/>
<g>
	<path class="st0" d="M12.8,35.9c0.1-0.8,0.2-1.6,0.4-2.3c0.6-2.2,2.1-3.2,4.3-2.9c0.4,0,0.8,0.1,1.2,0.2c0.1,0,0.3,0.2,0.3,0.3
		c0,0.4,0,0.9,0,1.3c-0.5-0.1-1-0.3-1.5-0.3c-1.6-0.2-2.6,0.4-2.9,2c-0.3,1.7-0.4,3.4,0,5.1c0.1,0.4,0.3,0.8,0.5,1.2
		c0.4,0.8,1.1,1.2,2,1.1c0.6-0.1,1.3-0.2,1.9-0.3c0,0.5,0.1,1,0.1,1.5c-1.2,0.3-2.4,0.5-3.5,0.1c-1.3-0.5-1.9-1.5-2.3-2.7
		c-0.2-0.6-0.3-1.3-0.4-2C12.8,37.5,12.8,36.7,12.8,35.9z"/>
	<path class="st0" d="M39.2,36.6c-0.3,0-0.5,0-0.7,0.1c-0.4,0.2-0.6,0-0.9-0.3c-0.5-0.6-0.9-1.2-1.5-1.7c-0.7-0.7-1.6-0.8-2.6-0.5
		c-0.8,0.3-1.2,0.9-1.3,1.7c-0.1,1,0.2,2,0.6,3c0.1,0.2,0.1,0.3,0.2,0.5c0.3,0.6,0.5,1.1,0.2,1.8c-0.2,0.5,0,1,0.3,1.5
		c1,1.6,2.1,2.9,3.6,4.1c-0.6,0.7-1.4,1.1-2.2,1.5c-0.8,0.3-1.7,0.5-2.6,0.5c-1.5,0-3,0-4.5,0c-4,0-7.1-3-7.1-7c0-4.1,0-8.3,0-12.4
		c0-0.7,0.3-1,1-1c5.6,0,11.2,0,16.7,0c0.6,0,0.9,0.3,0.9,0.9c0,2.4,0,4.8,0,7.2C39.2,36.5,39.2,36.5,39.2,36.6z"/>
	<path class="st0" d="M56.3,50.3c0,0.6,0,1.1,0,1.6s-0.3,0.8-0.7,1c-0.5,0.3-1.1,0.5-1.7,0.5c-3.2,0-6.3,0-9.5,0
		c-8.6,0-17.2,0-25.8,0c-0.6,0-1.3-0.1-1.8-0.4c-0.5-0.3-0.8-0.7-0.8-1.3c0-0.3,0-0.7,0-1s0.1-0.4,0.4-0.4c0.1,0,0.2,0,0.3,0
		c13,0,26,0,39,0C55.8,50.2,56,50.3,56.3,50.3z"/>
	<path class="st0" d="M41.9,43.6c0-2.1,0.3-4.1,1.1-5.9c0.1-0.3,0.3-0.5,0.7-0.6c1-0.4,2.1-0.8,3.1-1.2c0.2-0.1,0.5-0.1,0.7,0
		c1.7,0.8,3.1,2.1,4.2,3.6c0.9,1.2,1.6,2.6,2.4,3.9c0.2,0.3,0.2,0.5-0.1,0.7c-0.6,0.6-1.2,1.4-1.9,1.9c-2.4,1.7-5,2.7-7.9,2.6
		c-1.6,0-1.7-0.1-2-1.7c-0.1-0.6-0.2-1.2-0.2-1.8C41.9,44.6,41.9,44,41.9,43.6z"/>
	<path class="st0" d="M40.8,39c-0.6,2.5-0.7,5-0.3,7.6c-0.2-0.1-0.3-0.1-0.5-0.2c-2.4-0.9-4-2.6-5.3-4.7c-0.2-0.3-0.1-0.5,0.1-0.7
		c1.2-0.9,2.5-1.8,3.7-2.7c0.2-0.1,0.5-0.1,0.7,0C39.8,38.5,40.3,38.8,40.8,39z"/>
	<path class="st0" d="M54.6,41.1c-1.2-2.2-2.8-4-4.7-5.6c0.3-0.6,0.5-1.1,0.8-1.7c0.1-0.2,0.3-0.4,0.5-0.4c1.5-0.2,3-0.3,4.6-0.4
		c0.1,0,0.4,0.2,0.4,0.3C56.5,36.1,56.2,38.7,54.6,41.1C54.7,41.1,54.7,41.1,54.6,41.1z"/>
	<path class="st0" d="M26.8,19.6c0,0.9-0.3,1.7-0.9,2.4c-0.4,0.5-0.6,1-0.7,1.6c0,0.5-0.4,0.8-0.8,0.8s-0.7-0.4-0.7-0.8
		c0-0.9,0.3-1.6,0.8-2.3c1-1.1,1-2,0-3.2c-0.6-0.7-0.8-1.4-0.9-2.3c0-0.5,0.3-0.8,0.7-0.9c0.4,0,0.8,0.3,0.8,0.8
		c0,0.6,0.2,1.1,0.6,1.5C26.5,18,26.7,18.7,26.8,19.6z"/>
	<path class="st0" d="M36.1,19.7c0,0.9-0.3,1.7-0.9,2.4c-0.4,0.4-0.6,0.9-0.6,1.5c0,0.5-0.4,0.8-0.8,0.8c-0.4,0-0.7-0.4-0.7-0.9
		c0-0.9,0.3-1.6,0.8-2.3c0.9-1.1,0.9-2,0-3.2c-0.5-0.7-0.8-1.4-0.8-2.3c0-0.5,0.3-0.8,0.7-0.8s0.8,0.3,0.8,0.8c0,0.6,0.2,1,0.6,1.5
		C35.8,17.9,36.1,18.7,36.1,19.7z"/>
	<path class="st0" d="M31.4,19.7c0,0.9-0.3,1.7-0.9,2.4c-0.4,0.5-0.7,1-0.7,1.6c0,0.4-0.4,0.8-0.8,0.7c-0.4,0-0.7-0.3-0.8-0.8
		c0-0.9,0.2-1.7,0.8-2.3c1-1,0.9-2.3,0-3.2c-0.6-0.6-0.8-1.4-0.8-2.2c0-0.5,0.3-0.8,0.8-0.8c0.4,0,0.7,0.3,0.8,0.8
		c0,0.6,0.2,1,0.6,1.5C31.1,17.9,31.4,18.7,31.4,19.7z"/>
	<path class="st0" d="M36.7,37.7c-0.7,0.5-1.4,1-2.1,1.5c-0.4-0.9-0.8-1.8-0.8-2.8c0-0.6,0.4-0.9,1-0.7c0.2,0.1,0.4,0.2,0.6,0.4
		C35.8,36.6,36.2,37.1,36.7,37.7z"/>
	<path class="st0" d="M52.4,31.7c0-0.8,0.1-1.5,0.1-2.3c0-0.2,0.1-0.4,0.2-0.6c0.4-0.7,0.9-0.7,1.3,0c0.5,0.8,0.7,1.7,0.9,2.7
		C54,31.5,53.2,31.6,52.4,31.7z"/>
</g>
</svg>
