<?xml version="1.0" encoding="utf-8"?>
<!-- Generator: Adobe Illustrator 25.4.1, SVG Export Plug-In . SVG Version: 6.00 Build 0)  -->
<svg version="1.1" id="Layer_1" xmlns="http://www.w3.org/2000/svg" xmlns:xlink="http://www.w3.org/1999/xlink" x="0px" y="0px"
	 viewBox="0 0 70.6 70.6" style="enable-background:new 0 0 70.6 70.6;" xml:space="preserve">
<style type="text/css">
	.st0{fill:#DEB780;}
</style>
<path class="st0" d="M35.3,70.3c-19.2,0-34.9-15.6-34.9-34.9c0-19.2,15.6-34.9,34.9-34.9s34.9,15.6,34.9,34.9
	C70.2,54.6,54.5,70.3,35.3,70.3z M35.3,3.3C17.6,3.3,3.2,17.7,3.2,35.4s14.4,32.1,32.1,32.1c17.7,0,32.1-14.4,32.1-32.1
	S53,3.3,35.3,3.3z"/>
<path class="st0" d="M55.3,28.7h-4.9L49,25.3c-1.4-3.5-4.8-5.8-8.5-5.8H30.1c-3.8,0-7.1,2.3-8.5,5.8l-1.4,3.4h-4.9
	c-0.6,0-1.1,0.6-1,1.2l0.5,2c0.1,0.4,0.5,0.7,1,0.7h1.6c-1.1,1-1.8,2.4-1.8,3.9v3.9c0,1.3,0.5,2.5,1.3,3.4v4.4
	c0,1.4,1.2,2.6,2.6,2.6h2.6c1.4,0,2.6-1.2,2.6-2.6v-2.6h21v2.6c0,1.4,1.2,2.6,2.6,2.6H51c1.4,0,2.6-1.2,2.6-2.6V44
	c0.8-0.9,1.3-2.1,1.3-3.4v-3.9c0-1.6-0.7-3-1.8-3.9h1.6c0.5,0,0.8-0.3,1-0.7l0.5-2C56.4,29.3,56,28.7,55.3,28.7L55.3,28.7z
	 M26.4,27.3c0.6-1.5,2-2.5,3.7-2.5h10.4c1.6,0,3.1,1,3.7,2.5l1.6,4.1h-21L26.4,27.3z M22.2,40.5c-1.6,0-2.6-1-2.6-2.6
	s1.1-2.6,2.6-2.6c1.6,0,3.9,2.4,3.9,3.9C26.1,40.8,23.7,40.5,22.2,40.5L22.2,40.5z M48.4,40.5c-1.6,0-3.9,0.3-3.9-1.3
	s2.4-3.9,3.9-3.9c1.6,0,2.6,1,2.6,2.6C51,39.5,50,40.5,48.4,40.5z"/>
</svg>
