<?xml version="1.0" encoding="utf-8"?>
<!-- Generator: Adobe Illustrator 25.4.1, SVG Export Plug-In . SVG Version: 6.00 Build 0)  -->
<svg version="1.1" id="Layer_1" xmlns="http://www.w3.org/2000/svg" xmlns:xlink="http://www.w3.org/1999/xlink" x="0px" y="0px"
	 viewBox="0 0 70.6 70.6" style="enable-background:new 0 0 70.6 70.6;" xml:space="preserve">
<style type="text/css">
	.st0{fill:#DEB780;}
</style>
<path class="st0" d="M35.3,70.3c-19.2,0-34.9-15.6-34.9-34.9C0.4,16.2,16,0.5,35.3,0.5s34.9,15.6,34.9,34.9
	C70.2,54.6,54.5,70.3,35.3,70.3z M35.3,3.3C17.6,3.3,3.2,17.7,3.2,35.4s14.4,32.1,32.1,32.1s32.1-14.4,32.1-32.1S53,3.3,35.3,3.3z"
	/>
<path class="st0" d="M26.6,33.6c2.8,1.7,5.2,4,7.2,6.7c0.6,0.8,1.1,1.7,1.6,2.6c0.5-0.9,1-1.8,1.6-2.6c1.9-2.7,4.3-5,7.1-6.7
	c3.7-2.3,8.1-3.6,12.8-3.6h0.8c0.9,0,1.7,0.8,1.7,1.7C59.3,44,49.3,54,37,54h-1.7h-1.7c-12.3,0-22.3-10-22.3-22.3
	c0-0.9,0.8-1.7,1.7-1.7h0.8C18.5,30,22.8,31.3,26.6,33.6z M36.4,17.1c1.3,1.4,5.1,6,7,13.7c-3.2,1.8-6,4.2-8.2,7.1
	c-2.2-2.9-5-5.3-8.2-7.1c1.9-7.7,5.7-12.3,7-13.7c0.3-0.3,0.7-0.5,1.1-0.5S36.1,16.8,36.4,17.1z"/>
</svg>
